<?xml version="1.0" encoding="UTF-8"?>
<svg version="1.1" xmlns="http://www.w3.org/2000/svg" width="225" height="225">
<path d="M0 0 C74.25 0 148.5 0 225 0 C225 74.25 225 148.5 225 225 C150.75 225 76.5 225 0 225 C0 150.75 0 76.5 0 0 Z " fill="#000000" transform="translate(0,0)"/>
<path d="M0 0 C8.58 0 17.16 0 26 0 C26.99 3.3 27.98 6.6 29 10 C33.22056151 18.95270624 40.38300356 23.9811334 49.52758789 27.34857178 C54.48151056 28.65382547 59.55248648 28.44660216 64.64453125 28.43359375 C65.85010178 28.4388356 67.0556723 28.44407745 68.29777527 28.44947815 C70.84019198 28.45588134 73.38263839 28.45458353 75.92504883 28.44604492 C79.78976955 28.43754996 83.65300368 28.46629943 87.51757812 28.49804688 C89.99739539 28.4996596 92.47721525 28.49908 94.95703125 28.49609375 C96.10009232 28.50732773 97.24315338 28.51856171 98.42085266 28.53013611 C109.01878576 28.43930211 118.47120589 25.82206898 126.515625 18.6484375 C131.67999638 13.3536527 133.58604281 6.88687786 136 0 C144.58 0 153.16 0 162 0 C160.24492374 15.79568638 153.67978372 27.70480504 141.58984375 38.03125 C129.43194364 47.27345461 114.95807016 49.60743553 100.046875 49.1875 C98.65272451 49.17193205 97.25852971 49.15997141 95.86431885 49.15136719 C90.02823038 49.11281581 84.19409781 49.04270213 78.35986328 48.88720703 C61.13758199 48.45210281 47.18157353 48.3779236 33.64611816 60.54681396 C31.23863175 62.67213262 28.64698895 64.43459149 26 66.25 C25.2575 66.79140625 24.515 67.3328125 23.75 67.890625 C22 69 22 69 20 69 C20.00112793 68.05680908 20.00225586 67.11361816 20.00341797 66.1418457 C19.99346765 62.62786942 19.95684533 59.11624266 19.90234375 55.6027832 C19.88422253 54.08496926 19.87660826 52.56699084 19.87988281 51.04907227 C19.88275166 48.86085761 19.8473298 46.67602566 19.8046875 44.48828125 C19.79421387 43.17384033 19.78374023 41.85939941 19.77294922 40.50512695 C18.71440942 35.70491977 16.95030287 34.79495155 13 32 C5.27739546 23.03432028 0 11.82372209 0 0 Z " fill="#1ECD79" transform="translate(32,123)"/>
<path d="M0 0 C3.34638613 2.49198967 4.78809054 3.86981619 5.5625 8 C4.86713196 11.70862953 3.69245361 13.38233677 1 16 C-0.32 16.33 -1.64 16.66 -3 17 C-3 21.62 -3 26.24 -3 31 C-0.70804687 30.95359375 1.58390625 30.9071875 3.9453125 30.859375 C6.21596066 30.82799758 8.48658279 30.80381419 10.75732422 30.78027344 C12.3108233 30.76041018 13.86425022 30.73330979 15.41748047 30.69824219 C33.31129348 30.30497157 49.31548225 33.86078722 62.6796875 46.5546875 C71.92726387 56.3004498 76.52181678 66.69635099 78 80 C69.42 80 60.84 80 52 80 C50.02 74.555 50.02 74.555 48 69 C42.01240522 59.95491002 34.78230445 54.25341347 24 52 C22.22598081 51.89535746 20.44863511 51.84170718 18.67163086 51.82299805 C17.60629623 51.81016281 16.54096161 51.79732758 15.44334412 51.78410339 C14.295439 51.77671646 13.14753387 51.76932953 11.96484375 51.76171875 C10.18129234 51.74961113 10.18129234 51.74961113 8.36170959 51.73725891 C5.84247287 51.72342755 3.32321749 51.71270116 0.80395508 51.70483398 C-3.02364338 51.6876742 -6.85036607 51.64378366 -10.67773438 51.59960938 C-13.13020201 51.58947724 -15.58267696 51.58096277 -18.03515625 51.57421875 C-19.16889175 51.55671066 -20.30262726 51.53920258 -21.47071838 51.52116394 C-31.8539331 51.5490992 -40.89353716 54.09055506 -48.98828125 60.8046875 C-53.96397027 66.23446853 -56.57462488 72.87312438 -58 80 C-66.58 80 -75.16 80 -84 80 C-84 66.93984779 -77.81261417 55.42665927 -69.03125 45.875 C-58.31128665 35.97964921 -44.63290529 30.7944843 -30.1953125 30.90234375 C-29.1093428 30.90446617 -29.1093428 30.90446617 -28.00143433 30.90663147 C-25.70924593 30.91218925 -23.41715843 30.92473367 -21.125 30.9375 C-19.56250142 30.94252047 -18.00000129 30.94708241 -16.4375 30.95117188 C-12.62496165 30.96214481 -8.81249788 30.9793799 -5 31 C-5 26.38 -5 21.76 -5 17 C-6.65 16.34 -8.3 15.68 -10 15 C-12.39442371 12.68814262 -12.94472919 11.371104 -13.4375 8.0625 C-12.89919863 4.29439042 -11.62436976 2.70155711 -9 0 C-5.77509551 -1.61245225 -3.43772273 -0.81573082 0 0 Z " fill="#1ECD79" transform="translate(116,34)"/>
<path d="M0 0 C3.34638613 2.49198967 4.78809054 3.86981619 5.5625 8 C4.86713196 11.70862953 3.69245361 13.38233677 1 16 C-0.32 16.33 -1.64 16.66 -3 17 C-3.33 21.95 -3.66 26.9 -4 32 C-15.22 32 -26.44 32 -38 32 C-38 31.67 -38 31.34 -38 31 C-27.11 31 -16.22 31 -5 31 C-5 26.38 -5 21.76 -5 17 C-6.65 16.34 -8.3 15.68 -10 15 C-12.39442371 12.68814262 -12.94472919 11.371104 -13.4375 8.0625 C-12.89919863 4.29439042 -11.62436976 2.70155711 -9 0 C-5.77509551 -1.61245225 -3.43772273 -0.81573082 0 0 Z " fill="#1CC172" transform="translate(116,34)"/>
<path d="M0 0 C4.10703441 0.85563217 5.55401113 2.24378009 8 5.625 C8.62601538 9.58976406 8.65946039 11.62262021 6.4375 15 C3.14507816 17.1949479 0.95830645 17.69444397 -3 17.625 C-5.9375 15.625 -5.9375 15.625 -8 12.625 C-8.625 9.125 -8.625 9.125 -8 5.625 C-5.55401113 2.24378009 -4.10703441 0.85563217 0 0 Z " fill="#1DC876" transform="translate(137,109.375)"/>
<path d="M0 0 C2.4375 1.625 2.4375 1.625 4 4 C4.625 7.4375 4.625 7.4375 4 11 C1.4375 14 1.4375 14 -2 16 C-5.81588203 16.06467597 -7.94350686 15.8520106 -10.9375 13.4375 C-12.47800633 9.90339724 -12.81258204 6.78431066 -12 3 C-8.37297107 -1.50630867 -5.38985745 -1.56795853 0 0 Z " fill="#1EC977" transform="translate(96,111)"/>
</svg>
